<svg xmlns="http://www.w3.org/2000/svg" xmlns:xlink="http://www.w3.org/1999/xlink" width="816" zoomAndPan="magnify" viewBox="0 0 612 791.999994" height="1056" preserveAspectRatio="xMidYMid meet" version="1.0"><defs><g/><clipPath id="dd6fa72298"><rect x="0" width="213" y="0" height="770"/></clipPath></defs><g transform="matrix(1, 0, 0, 1, 161, 9)"><g clip-path="url(#dd6fa72298)"><g fill="#000000" fill-opacity="1"><g transform="translate(148.762258, 765.254716)"><g><path d="M 17.15625 -139.140625 C 17.15625 -139.316406 17.289062 -139.40625 17.5625 -139.40625 C 17.738281 -139.40625 17.828125 -139.316406 17.828125 -139.140625 C 18.097656 -132.617188 18.234375 -126.003906 18.234375 -119.296875 C 18.234375 -109.109375 17.921875 -98.695312 17.296875 -88.0625 C 16.671875 -77.425781 15.304688 -66.945312 13.203125 -56.625 C 11.097656 -46.3125 7.8125 -36.507812 3.34375 -27.21875 C 4.238281 -26.050781 4.910156 -24.882812 5.359375 -23.71875 C 6.253906 -22.019531 6.878906 -20.1875 7.234375 -18.21875 C 7.597656 -16.257812 7.78125 -14.253906 7.78125 -12.203125 C 7.78125 -10.503906 7.554688 -8.710938 7.109375 -6.828125 C 6.660156 -4.953125 5.851562 -3.347656 4.6875 -2.015625 C 2.988281 -0.316406 1.023438 0.304688 -1.203125 -0.140625 C -3.265625 -0.578125 -4.921875 -1.441406 -6.171875 -2.734375 C -7.421875 -4.035156 -8.3125 -5.535156 -8.84375 -7.234375 C -8.84375 -7.410156 -8.890625 -7.546875 -8.984375 -7.640625 L -8.984375 -7.78125 C -9.066406 -8.21875 -9.109375 -8.660156 -9.109375 -9.109375 C -9.109375 -9.554688 -9.109375 -10.003906 -9.109375 -10.453125 C -9.109375 -13.398438 -8.679688 -15.988281 -7.828125 -18.21875 C -6.984375 -20.457031 -5.847656 -22.828125 -4.421875 -25.328125 C -4.148438 -25.773438 -3.878906 -26.242188 -3.609375 -26.734375 C -3.347656 -27.234375 -3.128906 -27.75 -2.953125 -28.28125 C -5.546875 -31.320312 -8.785156 -34.070312 -12.671875 -36.53125 C -16.554688 -38.988281 -20.753906 -41.085938 -25.265625 -42.828125 C -29.773438 -44.566406 -34.285156 -45.972656 -38.796875 -47.046875 C -43.316406 -48.117188 -47.453125 -48.832031 -51.203125 -49.1875 C -53.796875 -49.457031 -56.410156 -49.570312 -59.046875 -49.53125 C -61.679688 -49.488281 -64.25 -49.242188 -66.75 -48.796875 C -69.34375 -48.429688 -71.867188 -47.734375 -74.328125 -46.703125 C -76.785156 -45.679688 -78.910156 -44.234375 -80.703125 -42.359375 C -80.703125 -42.265625 -80.832031 -42.21875 -81.09375 -42.21875 C -81.363281 -42.488281 -81.363281 -42.625 -81.09375 -42.625 C -79.3125 -44.675781 -77.164062 -46.28125 -74.65625 -47.4375 C -72.15625 -48.601562 -69.609375 -49.503906 -67.015625 -50.140625 C -64.429688 -50.765625 -61.796875 -51.164062 -59.109375 -51.34375 C -56.429688 -51.519531 -53.753906 -51.519531 -51.078125 -51.34375 C -45.535156 -51.070312 -39.65625 -50.195312 -33.4375 -48.71875 C -27.226562 -47.25 -21.265625 -45.128906 -15.546875 -42.359375 C -9.828125 -39.585938 -4.957031 -36.191406 -0.9375 -32.171875 C 1.914062 -38.609375 4.191406 -45.195312 5.890625 -51.9375 C 7.585938 -58.6875 9.066406 -65.503906 10.328125 -72.390625 C 12.109375 -83.285156 13.488281 -94.316406 14.46875 -105.484375 C 15.457031 -116.660156 16.351562 -127.878906 17.15625 -139.140625 Z M 2.8125 -13.265625 C 2.8125 -15.140625 2.675781 -16.75 2.40625 -18.09375 C 2.144531 -19.4375 1.609375 -20.957031 0.796875 -22.65625 C 0.0859375 -21.40625 -0.578125 -20.175781 -1.203125 -18.96875 C -1.828125 -17.757812 -2.320312 -16.578125 -2.6875 -15.421875 C -3.039062 -14.253906 -3.257812 -13.132812 -3.34375 -12.0625 C -3.4375 -10.988281 -3.484375 -9.828125 -3.484375 -8.578125 C -3.210938 -7.773438 -2.765625 -7.0625 -2.140625 -6.4375 C -1.515625 -5.8125 -0.9375 -5.453125 -0.40625 -5.359375 C 0.132812 -5.273438 0.628906 -5.410156 1.078125 -5.765625 C 1.878906 -6.566406 2.367188 -7.75 2.546875 -9.3125 C 2.722656 -10.875 2.8125 -12.191406 2.8125 -13.265625 Z M 2.8125 -13.265625 "/></g></g></g></g></g></svg>
